/* XPM */
static char *_c50f9e049464b129fcce58464985418jG6SZKm8qtflVekg[] = {
/* columns rows colors chars-per-pixel */
"64 64 155 2 ",
"   c #1F2336",
".  c #202634",
"X  c #262A33",
"o  c #282D36",
"O  c #222639",
"+  c #252A3C",
"@  c #292E3C",
"#  c #332F3F",
"$  c #2D323D",
"%  c #32303F",
"&  c #272C40",
"*  c #292E43",
"=  c #2B2F48",
"-  c #312D44",
";  c #2D3244",
":  c #2E324A",
">  c #313646",
",  c #393546",
"<  c #313846",
"1  c #32364C",
"2  c #39374A",
"3  c #343A4C",
"4  c #3A3A4E",
"5  c #313650",
"6  c #393651",
"7  c #353B52",
"8  c #393E52",
"9  c #373C59",
"0  c #3C3E5A",
"q  c #403D4F",
"w  c #413E51",
"e  c #403E5B",
"r  c #38404F",
"t  c #3C4355",
"y  c #3D435B",
"u  c #3F485B",
"i  c #3E4561",
"p  c #454255",
"a  c #41475B",
"s  c #49465A",
"d  c #424A5D",
"f  c #4B4C5E",
"g  c #404663",
"h  c #454D62",
"j  c #4C4E61",
"k  c #454C6A",
"l  c #484F6B",
"z  c #514D63",
"x  c #475063",
"c  c #4A5265",
"v  c #4C556A",
"b  c #4E596D",
"n  c #515366",
"m  c #53566A",
"M  c #59566C",
"N  c #525A6E",
"B  c #5A5A6E",
"V  c #4C5573",
"C  c #4F5876",
"Z  c #545D72",
"A  c #595E71",
"S  c #525C7C",
"D  c #605D74",
"F  c #566175",
"G  c #5A6276",
"H  c #576179",
"J  c #5C657B",
"K  c #5E687E",
"L  c #626076",
"P  c #62667B",
"I  c #69677D",
"U  c #62697D",
"Y  c #6B697F",
"T  c #565E81",
"R  c #576082",
"E  c #596385",
"W  c #5F6A80",
"Q  c #5C6689",
"!  c #5F698C",
"~  c #636D83",
"^  c #6A6D84",
"/  c #666F89",
"(  c #706D84",
")  c #657186",
"_  c #697186",
"`  c #67728A",
"'  c #6B758C",
"]  c #6C788F",
"[  c #6E788E",
"{  c #73738B",
"}  c #70778A",
"|  c #727A8D",
" . c #70788F",
".. c #737B8E",
"X. c #747C8F",
"o. c #6E7790",
"O. c #6B7890",
"+. c #6C7A91",
"@. c #6F7992",
"#. c #6E7A92",
"$. c #717990",
"%. c #727A91",
"&. c #727D93",
"*. c #747C91",
"=. c #717B94",
"-. c #717D95",
";. c #757D95",
":. c #767E94",
">. c #757F97",
",. c #777F98",
"<. c #787F99",
"1. c #758096",
"2. c #788095",
"3. c #788395",
"4. c #798197",
"5. c #788397",
"6. c #778199",
"7. c #75829B",
"8. c #76829A",
"9. c #78829B",
"0. c #7B839A",
"q. c #7A849B",
"w. c #7B829C",
"e. c #7B849C",
"r. c #7B869C",
"t. c #7B859E",
"y. c #7A869E",
"u. c #7C869F",
"i. c #7E899D",
"p. c #7E889F",
"a. c #7D87A0",
"s. c #7E87A0",
"d. c #7D89A1",
"f. c #7E88A1",
"g. c #7D88A2",
"h. c #7E89A2",
"j. c #7F89A2",
"k. c #81899F",
"l. c #8087A1",
"z. c #808AA3",
"x. c #818BA4",
"c. c #828CA4",
"v. c #828DA5",
"b. c #858FA7",
"n. c #858FA8",
"m. c #868FA8",
"M. c #8690A9",
"N. c #8691A9",
"B. c #8A94AD",
"V. c #8D97B0",
"C. c #8E98B1",
"Z. c #9097B1",
"A. c #929BB4",
"S. c #969FB8",
"D. c #96A0B9",
/* pixels */
"x.z.f.f.t.9.9.>.*.$. .' _ ^ / U J v f v X X _ 3.3.3.3.3.3.3.3.3.3.3.3.[ _ U U P J m X h c b b b F Z N b b b x X t.N.N.N.N.N.v.v.",
"f.u.t.w.9.>.>.*.$.[ ' ` _ / ~ K J F Z x X J }  .....X.X.3...} } Y P U U P U P P G A X ; f h c x c v v v x i u t f.f.x.f.h.v.h.h.",
"t.w.9.6.>.>.#.[ #.' ` ^ ~ ~ S A F N C x X K U N G } ' } } } } U U U U U P P G G A A c o t a u x x u u d u u X +.f.+.i.f.f.i.f.f.",
"6.,.>.&.=.$.[ / ~ W K K J H G Z F N c x G U U m P U U _ } U U U U U U U P A G A A M v   + ; t t t t ; ; & + X ] 8.i.t.t.t.q.q.) ",
"' ' ` ` ` ` ~ ~ U K K J c b S A N N c X A P J U P U P U U U U P U U U G A A A A M n t X     @ o @ + &     @ X +.O.=.#.#.#.#.#.+.",
"` ` ` ) / ~ ~ ~ K K J J c c F N N c c X m G G G P G P P P G P P A G A A A A A N n j o X X o   X X X X X X X X ` ` =.#.#.+.' [ ' ",
"` ` ~ ) ~ W W K K J J H F F N Z b c $ d m m G G G G G G G G G A A A A A A A n n f c X X X X X X @ < 3 3 r 1 X X ` ` +.' ' +.` ' ",
"` ) ~ ~ W ~ ~ K J J H F Z Z N N c x X u m m m B G B G B A A A B A A A n n n n f f 7 X < < < < 3 1 r t r t t t X S / / ` ` +.` ` ",
"~ ~ ~ ~ W K K K H G F F N S m c x * X 0 v n n n m A B G B N B m N n A A n f j f f X < < < 3 3 r r t u u u u u < X W ~ W ` ` ` ) ",
"~ ~ K W K J J G H F F Z N N v c ; X X 8 8 n n f n U n m m m n ( n n n n j f f f 3 X < < r r t t d u d u d x h d X V W K W ` ~ ~ ",
"W W K J J J H H F Z Z N v x 7 ; ; X X X 4 t 8 j j n G U n f c c f f f f f f 4 r X ; 3 r r t u u f x x j c c c v h X V K K W W W ",
"W J K J J H H F Z Z v v : : : = X X < X o 2 8 w f f n f f f c f f f r r 4 4 , % X < r t u d x x x c b b b N b N b X k k J K W W ",
"H H J G F F Z b ~ a 1 : : : =   < r t u t X X 4 r r f f t 8 2 8 r r r < , , X X X 3 u u d f c v b b Z Z F Z F G F b X x k H c H ",
"H H G F Z J b v 1 5 : : : = X r t a h c v v u X , r 3 , 4 2 2 2 , X X X X X X X 3 t a d x c b N Z G J K K K K K K H C X i H H F ",
"G ` ' b b 9 5 5 5 : : : X $ t y h c v Z A F G N X X X X X X X X $ < < r r r r X t a x c b F c G K U U ) U ) ) / ) W F X i u Z Z ",
"N _ b 9 7 7 5 : : : ; X : t u h c b N U U ~ ~ U K j X X X X < < r r p r t t r X t d x N N H G U U ) ` ` ] ] [ +.' ' W H X y y N ",
"b ` 9 * * 5 1 : : & X < t t x v N F J K ' [ [ ' ' b y o X < 1 t t t y t t d t X t x b Z G K U ) [ _ [ [ 1.1.1.7.+.+.] ) b $ 9 t ",
"h v 5 5 & : = = X X : 3 u d c N F K ~ ` ' 6.q.4.#.F y 1 X 1 t t d f h f x x t ; f b N G K ~ _ ' 1.1.1.1.i.h.7.7.5.6.1.` K X 7 5 ",
"1 5 : : 1 = o X X + r f t x N F K ~ ' [ $.-.x.z.f.J i t X t t a h x v v v v o ; u c G K ~ _ [ &.1.q.u.u.h.h.h.h.g.i.+.+.] l X 5 ",
": 5 = : * X X X X + u v r x v J ~ ' #.1.t.q.u.9.f.W k ; 7 t d x c v N N F f X ; u x c Z ) ' +.8.q.i.z.x.h.h.C.h.N.7.7.` V V X X ",
": : X X X W ` / Z X & 3 d x b H W W ! +.#.#.-.#.] W k X r y d c v N Z G x x   X 1 7 c b N ) ) 5.f.x.N.B.B.C.C.C.h.#.S S C V l   ",
". X [ ' B.n.s.t.~ X & : h v Z H W ` +.7.6.f.f.7.#.V k X t d h h f h h x y y X X o 9 y u F H K W t.#.7.C.C.f.7.7.Q E H S C V l X ",
"-.s.Z.B.M.x.u.<.&.b . : 5 t y h l C S ` g.! E R S V k X ; t u h y y y y y   X $ & X 7 y i k K K ` ` B.C.7.g.Q Q Q V R S C V X X ",
"C.V.B.M.c.l.9.*.[ J X X X 7 y g i V S R E ! Q R C V X X ; : 1 7 9 0 y X X + & < 3 7 < X y k l V C +.#.6.g.Q ! ! ! H R S C X X 8.",
"C.B.N.x.f.u.>.$.' ^ c X X X X X @ X X X X X X X X X X X X & : X X X X X X ; 1 3 t u 7 ; X X l v V C S R f.Q ! ! ! E R o X 7.B.C.",
"N.N.f.f.w.6.$.' ) ~ S X X o X X o o X X X X o o $ @ @ @ X + X X X X X   ; < t u t t < : X X X o V C S T R E ! Q Q R   7.f.C.C.C.",
"x.f.s.9.-.$.' ) ~ F A u X ; ; < < 1 r < 3 3 1 < < < ; ; ; @ @ .   X X @ < t u t 7 3 7 X X X ;   X X C S S R E E X X #.g.g.N.f.g.",
"u.t.6.-.` ^ ~ K G F Z u X < 3 3 r r r r 4 t t t 8 3 3 < ; ; $ $ X   X o ; 3 1 7 9 X X ` #.#.1.6.X X X X X X X X X X 7.i.i.g.h.f.",
"#.1.' ` ) ~ K J G F d u < 3 t t r y a a t p t t t t t 3 3 < ; ; @ +   X ; ; 3 X X $ +.#.h.f.f.#.#.o X X 3 u b F V X 6.8.7.7.1.+.",
"#.` ) ` ~ W K G F N d X r t t t u u a t x x x f j a a t 4 3 < > ; $ X X   X X X ` #.7.t.' #.N.B.-.-.X < u v G ) K X #.#.1.+.+.+.",
"` ) ) ~ W J H S Z N u X t u d j x v d u m m m v c c c j f a t 3 < ; @   X X ) ) 1.7.t.f.h.N.N.N.C.#.X 7 x x ) #.[ o #.' H H +.` ",
") ~ K K J J G Z b v t X t h c v V N N Z F N F Z N N m c x d a t 3 @   X X K ' ] #.6.t.f.g.M.N.B.B.+.x t x H ] u.1.X K ` ] F ` ` ",
"~ ~ K J H F Z N b u t X a d v N B A A A L J L J A A Z N m c h r <   X X K ' ' +.>.6.u.f.z.x.N.B.B.Z.[ X x J +.t.f.o F ) ) ) ) W ",
"J J H G G Z b u v t & X d d j h S ~ ~ U ~ U ~ U ~ P G Z N v a 4 +     K ) ' ' 1.<.w.t.s.x.x.N.B.Z.C.#.X y C K ' H X Z W W W W K ",
"A A Z Z N b u y t t X < x j x c A N / / _ _ ^ ^ / P U J G t t + + X F U ` ) ' 1.>.0.s.l.b.b.N.N.B.V.C.[ ; u Z V l X b b J J K H ",
"S Z Z d b u t t 7 + X y y c c v v v ~ v _ { $.' _ _ ^ N a t & @ X F ) ) _ ' ] +.>.u.u.z.x.N.N.N.B.V.C.' X 7 y i i   c v v N G G ",
"m N d u y t r = @ X X X g d N N N N N N ~ m U _ $.J j g r : ; X v K W ~ ` ' ' 1.<.9.u.l.c.c.b.B.B.B.Z._ _ o : X X X t x x x Z h ",
"d y t t t ; & @ X X X X @ h k g Z Z Z Z N N ~ ~ ~ j c 6 1 : : . H J ~ ~ ` ` +.X.9.w.u.k.l.c.c.M.N.B.B.Z._ X X x J ) X 7 d d d v ",
"t r t ; & @ X X t t t y X X k h l l A S F S Z N H v 9 4 1 : X b H J U ~ / ` ' [ <.<.e.e.l.l.c.c.N.N.B.B./ ~ t v H ) 1.; 1 a y y ",
"; = & @ @ X < t u t d h h d X v l l l l h G S Z Z < : 5 5 X b Z G J K ~ N _ ` o.:.:.<.0.u.k.l.z.b.n.N.B.~ ~ X d F K [ ` ; ; ; t ",
"& + @ X X X t d t t c c b v x X l v l k l k g S y 9 9 7 X u b Z A G J K ~ / / _  .>.*.9.u.0.k.l.x.x.b.b.&.W X u b K ) ' ) @ & & ",
"X X X K K . d d c b N Z N F Z N v X l v v k h a i y 0 . X c b N S G J K K ~ ~ / ' ' $.>.>.9.9.9.k.s.f.x.K W K 3 f b F F l X X + ",
"C J ' x.' W X c c Z F J K K K K S b r X l k h g y y X X c v v b Z Z G H K U U ~ _ _ ' $.*.>.1.9.q.q.s.s.x.K K X t x v C i i X X ",
"1.q.i.i.x.#.~ X b b ~ ` ' ' _ ' _ ~ Z b o + g g y X X x c x v v c Z Z G H J K K / ` _ ' [ $.*.-.*.>.K J J J J < ; t 1 7 r X b b ",
"$.,.w.^ _ z.[ ~ X i H #.>.9.6.6.*.#.` W N v o X ) ] X d x x c y d N Z Z F G J J U ~ / ) ` ' ' ' U A H u.J H J g X @ & o u x ~ +.",
"$.$.>.9.` u.f.#.~ i i W >.b.x.' z.w.>.' J 5 X U ] +.) x h x x c v v b Z N S G F G H K ~ ~ J F F $./ H H 4.G S d X o y d H ~ ` ` ",
"`  . .=.1.9.w.t.+.@ i i ) u.w.) ~ ~ i 0 9 7 y Z K K K < d h x x c v v b N Z Z Z A F A N Z K F F F F G F S H i a X y h Z G J ~ ~ ",
"/ _ ' #.=.#.1.6.[ ) X k k / #.k k i i 0 9 @ $ y x N C X u f h x x x v v m N b Z b b Z V f N v g g g g a i i y X X t v N Z G J W ",
"U / / _ [ #. .` ' ' )   k k k k u u i X X X x o t u u u d d x d h h x c c c v v v v u g 7 g i g g y g y y y 9 X r d t v b Z F J ",
"J U ~ / W W ~ ) ) ` ~ o X y k i X o F K 1.7.f.N.1.X r 3 : d u r t h x c c 0 y y y y y y y y y y y y y y y y   X r u r y v v N G ",
"N G G H K K W K ~ ~ W < X X @ k v Z K ) ] 1.i.f.N.C.7.  X : 1 1 1 1 7 7 8 9 9 8 y y y 0 y y y y t y X X X X X X 7 r t h h c v b ",
"Z N S G H K K K ~ ~ J 7 X r y u c b G K ) +.1.g.x.N.N.5.X X : : < 1 1 1 7 7 8 8 7 9 8 > X X X X ; 1 t h c b c X   r r h h v v v ",
"v N Z Z H H H K K F H X < r < 7 x v b J K K 1.1.i.f.x.N.1.+.X X X X X X X X , , , , , , , # X < 3 t h b N F H X X O 5 t y x c v ",
"h x c v v b v S Z F y X < 9 ; u x x b H J K ) 1.1.i.q.f.t.#.) X X X - , q q w w p p p w q , X > t t b H K ) ) ) X O + t t y u d ",
"d d x x v v r 9 7 t y X ; < t t u x v b N J K ' +.#.1.#.-.-.' K X # , 4 w s s f z z M z s q X 8 f v F K ) ' ] 1.` X   O + & & ; ",
"; : : : : 1 5 5 5 5 : X + + ; r u u x v v F F H K K ` +.' ' ~ J X , q s z M M D D D D M M p X 3 u x b H K [ ] 1.+.t X X O + @ & ",
"X X X X @ : ; X X X X X + O + ; < 3 u u b b C H H H H K K K K H X , s z M D I I ( I I D D s X ; 1 y i c k S S R S C X X X   X X ",
"#.] o.[ ` ` N # X X X X X X X + * < 5 7 r c v u Z F H S b Z Z v X q s z L I ( ( { { ( ^ z 2 X * 5 t i x V C R R T X X g.7.7.1.1.",
"A.A.Z.Z.B.B.z. .+.' ' J H H S N X X ; < 5 3 7 r r r t 9 r 7 < : X q p s z n M ^ ( { ^ z q 2 O a 7.7.1.    o v b @ X g.f.D.D.A.A.",
"C.V.Z.B.B.N.b.n.s.s.a.,.4.&.-.[ N x X X X : : 5 5 1 5 5 : ; ; $ X X - , 2 M B D D D e e 6 O { B.B.C.C.1.+.X ~ ) X 6.D.D.S.D.D.C.",
"C.V.B.N.m.n.b.l.l.u.0.:.>. .J _ ' G b X X X X o o X X X X U 3.U ) P f X X 2 0 e p y a 6 X ) t.i.h.h.x.h.t.) b o X s.D.C.C.A.C.C.",
"B.B.N.N.m.c.k.l.u.9.<.>. . . ._ ) U K c X X X o ) ) K 1.5.5.1.3.i.1.} ) U J G X X t 0 X H ] #.1.7.7.5.7.-.+.J t X f.C.C.C.C.1.7.",
"N.n.b.x.l.l.u.u.<.*.>.$. .' _ _ U K J H x X o U i.i.h.h.x.v.x.k._ Y e.2.X. ._ ^ G X X b F U W ` #.` [ _ W H F b 7.B.C.C.B.B.#.B.",
"b.b.z.z.u.k.0.u.:.>. . . .` / ~ K c F c t X U i.i.i.i.i.i.i.i.i.) U X.X. ._ _ U J F X c v F F J J c J J F Z v X 7.N.B.B.B.N.N.N."
};
