/* XPM */
static char *_996da8feabb44bea92ed24730cdc6abw358PXZvlT8gFKJO[] = {
/* columns rows colors chars-per-pixel */
"64 64 214 2 ",
"   c #2E171B",
".  c #31171B",
"X  c #34181B",
"o  c #3C1B1C",
"O  c #5C0D04",
"+  c #4C1419",
"@  c #441C1D",
"#  c #4C1E1E",
"$  c #53161B",
"%  c #58171B",
"&  c #531E1E",
"*  c #5B1C1D",
"=  c #6C1105",
"-  c #791605",
";  c #631B1C",
":  c #6B1E1D",
">  c #701F1E",
",  c #47201C",
"<  c #4D211D",
"1  c #582417",
"2  c #54211E",
"3  c #5B231E",
"4  c #5D281C",
"5  c #63251E",
"6  c #6A261E",
"7  c #64291E",
"8  c #6C2A1F",
"9  c #7B2E14",
"0  c #73231E",
"q  c #7B241D",
"w  c #732C1F",
"e  c #7A2D1E",
"r  c #6D381E",
"t  c #75321D",
"y  c #7B331E",
"u  c #753B1E",
"i  c #7C3B1F",
"p  c #531E20",
"a  c #5B1F20",
"s  c #611F20",
"d  c #552020",
"f  c #5D2220",
"g  c #642420",
"h  c #6B2521",
"j  c #6D2920",
"k  c #732522",
"l  c #7C2522",
"z  c #742A21",
"x  c #7B2B22",
"c  c #773220",
"v  c #7C3021",
"b  c #7E441F",
"n  c #851A07",
"m  c #8C1D04",
"M  c #A61C0E",
"N  c #942506",
"B  c #9D2106",
"V  c #83261D",
"C  c #8D271C",
"Z  c #832C1D",
"A  c #8B2D1E",
"S  c #94291D",
"D  c #9C2B1E",
"F  c #83341F",
"G  c #8B311B",
"H  c #833B1E",
"J  c #8C391F",
"K  c #983810",
"L  c #92331E",
"P  c #9D331E",
"I  c #933B1E",
"U  c #9C3C1D",
"Y  c #A52704",
"T  c #B72809",
"R  c #AB3705",
"E  c #B93A08",
"W  c #A32B1D",
"Q  c #A7381A",
"!  c #AC3C1F",
"~  c #B83B1A",
"^  c #842622",
"/  c #892624",
"(  c #832D22",
")  c #8B2C23",
"_  c #932C23",
"`  c #9B2D23",
"'  c #833221",
"]  c #8C3222",
"[  c #843A21",
"{  c #8D3B21",
"}  c #943423",
"|  c #9B3424",
" . c #943A21",
".. c #9B3A23",
"X. c #A42F22",
"o. c #AA2F21",
"O. c #A33424",
"+. c #AB3324",
"@. c #A33B23",
"#. c #AC3C24",
"$. c #AA3728",
"%. c #B33323",
"&. c #B93524",
"*. c #B23D23",
"=. c #BE3C22",
"-. c #B53F28",
";. c #C82E08",
":. c #C93406",
">. c #D43507",
",. c #DE3905",
"<. c #E73D04",
"1. c #C43A23",
"2. c #C63824",
"3. c #D43D25",
"4. c #87471F",
"5. c #8B421E",
"6. c #944B1D",
"7. c #8D521B",
"8. c #9D571C",
"9. c #B84508",
"0. c #A8451B",
"q. c #B8451C",
"w. c #A6581D",
"e. c #BC561E",
"r. c #B16A1C",
"t. c #944321",
"y. c #9D4322",
"u. c #904B21",
"i. c #9C4B22",
"p. c #975621",
"a. c #A34123",
"s. c #AB4324",
"d. c #A24C22",
"f. c #AD4B22",
"g. c #B44324",
"h. c #BC4423",
"j. c #B54B23",
"k. c #BA4B25",
"l. c #B84528",
"z. c #A55222",
"x. c #AD5322",
"c. c #AE5C21",
"v. c #B45423",
"b. c #BC5322",
"n. c #B45B23",
"m. c #BA5B22",
"M. c #AB6422",
"N. c #B96624",
"B. c #CA4609",
"V. c #D74708",
"C. c #D44A0A",
"Z. c #DB4D0B",
"A. c #C8580A",
"S. c #D7550B",
"D. c #C94816",
"F. c #CC521A",
"G. c #ED4303",
"H. c #EE4B0B",
"J. c #E84C08",
"K. c #EA5305",
"L. c #EC5E06",
"P. c #E65208",
"I. c #F35605",
"U. c #FC5401",
"Y. c #F45903",
"T. c #FF5C01",
"R. c #FF5F01",
"E. c #E55D14",
"W. c #E4521B",
"Q. c #D86716",
"!. c #D56D13",
"~. c #ED6706",
"^. c #F46704",
"/. c #FF6400",
"(. c #FF6B01",
"). c #E4760E",
"_. c #F77604",
"`. c #FF7301",
"'. c #FE7C00",
"]. c #E57710",
"[. c #C34423",
"{. c #CA4723",
"}. c #C34E22",
"|. c #D34722",
" X c #C45523",
".X c #CA5624",
"XX c #C55924",
"oX c #D55321",
"OX c #D55B22",
"+X c #DC5A22",
"@X c #E35E26",
"#X c #CA6723",
"$X c #D76524",
"%X c #DA6B23",
"&X c #CE7822",
"*X c #E06C23",
"=X c #E67923",
"-X c #FF8400",
";X c #FF8C01",
":X c #F19606",
">X c #FF9401",
",X c #FF9C00",
"<X c #FFA401",
"1X c #FFAC01",
"2X c #FFB301",
"3X c #FFBC00",
"4X c #EC8224",
"5X c #F09226",
"6X c #F9A023",
"7X c #FFC300",
"8X c #FFCB01",
"9X c #FFD401",
"0X c #FFDA00",
"qX c #FFE301",
/* pixels */
"3 3 3 5 g g f g 3 x z z j x z c ] ' z z h h h h g j g g g g s T.h k k z z x x x x x ( x h z k T.d d d f 3 5 g T.@ @ @ 2 2 2 3 2 ",
"5 5 g 7 g h g < j z z z j # f x ] ( v x x z x z z z g j h j : ) k ( ' ] ' ( ( ) ) ] ] ] ) x l T.g g j , # l X.# # & 3 2 3 4 3 7 ",
"h 6 8 8 j g h # K.z x z o # ! { ' x ) ( ' ( ( ( ( x v z k l h +.( ' ] | ..| x ( ( } } } } ^ h T.x x < d k U.T.o # 5 g g g 7 g 8 ",
"j j z z z h + p U.g o o e 0.`. .' j g s f a a a f a g k l k %./.'.(.XXv.} x h h ( ) O.O.h k T.T.] a g ( T M M o 7 7 h 7 g 8 j j ",
"e e x x 6 @ + p T.# 0 U e.-X;X.X-.` / V ^ l l ^ ^ ) _ T.T.T.T.;X>X<X1X=X}.@.k k / / k ( T.T.T.T.h ^ _ ,.- O O T.2 h h z z z w z ",
"x v ( h # # p W T.P q.'.2X2X#Xe./.U.%.+.X.X.X.X.o.T.T.p # # @ @ (.'.>X3X-X1.%.$.o.o.%.T.= n T U.o.&.T.:.Y m m ,.@ z z w z y x e ",
"] h @ # # $ ` &.I.B.-X8X<XN.0...^ l ^ / T.T.T.T.T.T.a p & # # , 3 w i t (.>XT.T.T.T.T.B B ;.,.U.T.T.T.T.U.<.<.T.T.3 e x ( ' ' ( ",
"@ # # # V ` ~ n N 9.;X>XN.d.} l l k k h k k k T.T.g g f 2 & # # < 4 4 4 2 @ . P.T.T.T.<.T.T.+ + + + + + $ $ % $ T.# ( ' e 6 6 @ ",
"# # q S X.T.<.H.(.'.-X_.a.] l k j h h h h k h h T.h g g f 3 2 2 , < < < @ @ o @ o t T.C.+ + + + + + $ + + $ $ % % 2 j 2 2 < < # ",
"e ( S W T.T.3 j [  .y...' k h h h h g h s h g h T.s h h g 3 2 d 2 < 2 , < < # @ # @ T.+ + + + $ + $ $ % % $ % % * K.3 3 7 7 5 3 ",
"D +.T.m ,.$ f h ( ] } l k k h h g g h g g h h h a U.k h g g f f 3 2 2 2 < < p p # & P.+ $ $ $ $ % % % % % % * * 6 : S.y e e L L ",
"/.G.Y T 5 f h k x l T.k k h h g g f f g h h h h d T.h z k j k j j h g f d d d d d p 9 % $ % % % % % * * ; ; ; : 0 q /.Q 0.s.q.=.",
"7 2 < , # k x ( ) l T.k : h g g h g g h 8 h j z 3 /.x z x ( x x z x z z j j f f f 3 p % * * ; ; ; ; ; ; ; ; : 0 e A { `.OXOXOX(.",
"w 7 4 2 p x ( } } _ /.z h g h g h 6 8 h h j z v Z q.(.] x x ( ' ' ( x x x x z k j h p % ; ; ; ; ; : ; : : : 0 q V ] Q ;X>X2X2XA.",
"y 8 7 3 f ( } @.} -.S.v c j h h h j 8 z z j x 4 0.-X2Xs.] q } } ] ] ) ] ( ( x x x x 6 % ; : : : : > > > : > q q A P w._.3X7X>X5.",
"[ c 8 g g x  .} g.`... .' z j j j 8 z z z 4 , J S.3X3X-X@./ h ) } } | | } ] ] ] z h C.% : : : > > > q q l q ( ) A ..f.e.3X<Xw.d.",
"{ x z h h z } g.$X3X].f.I ' w 8 w z w e . @ V /.1X'.x.(.1XO.) w ' y.j.g.s...( k l ( T.; 0 0 q l ^ V ^ ^ V ^ / A  .O.s.0.-Xw.v.y.",
"{ ' z k z x @..X<X0X1Xv.J 8 # @ # # . . ; V T.(.C. .} ] z /.h.k.i.z.i.6.{ ( _ | | /./.0 : q q V V / / ^ ) / ) _ P | #.0.`.5.f...",
"] ( x k x ] h.>X9XqX0X-XA.x 3 & & 3 : V D T.T.l ( v e y c F.-X>X4X&X#X Xh.*.%.h.K.B.B.(.V l ) A ) A S _ _ _ _ _ | | +.| q.y y...",
"} ( ( ( ) Y.>X`.$X4X=XQ.(./.T.T.E S W T.T <.T.z l w [ b 8.;X2X7X7X>X-XE.|.T./.J.9.9.9.^.! A q _ _ _ ` _ } ` ` ` | | | O.) z |  .",
"} ( ) ) _ /.x  .j. X Xk.O.>X>XT.T.>X(.T B <.T.6 w H u w.:X7X8X7X>X-X`./.T.T./.V.C.B.S.>X;X#.A } | ` O.| X.X.X.O.` O.O.O./ /.] | ",
"_ l l X.T.T.7 v  .a.s. .>X/._ _ ) ^ ;X/.>.J.(.8 7 r 7.r.1X3X>Xc.i. .( k k k /./.`.>X2X9X3X}.P q _ +.O.+.$.O.O.O.$.O.O.` ^ T.k | ",
"_ X.+.T.T.2 2 7 t v ' (.<XL.} / x l k /.(.^.`.I i 5.c.;X1X-Xd. .( k k h k k z x { @.m.&X;X-XQ _ q O.O.+.$.+.$.$.$.$.$./ / T.l l ",
"T.T.T.T.T./.2 5 8 t (.<X/.O.) ( x k x { -X>X<Xe.f.0.`.>Xy.{ v k h h h h h j j k x } @.s.a././.#.O.] ^ l l ^ ^ ^ / / / / / T.` D.",
"        /././.(.~.'.<X`.g...{ ( z h x { 1X9X3X;X_.`.(.' x z h h h h g g g g j h z x ] ] } ' /.E.[.-.` _ / ^ / / _ _ _ _ ` T.T.T.",
"o X X o o , 1 0.;X<X;X#Xv.@.} x z h z t ,X,X).A.`./.x l j j h g g f g g g g g g h j z x x ' `.-X'.{.%.o.X.X.O.O.+.#.-.%./.T.o o ",
"o o o o , 2 4 t 7.>X3X&Xm...} v c g g 4 >X,XL.L.`.) x j j g g g g f f f f j j j j k z z x i.;X2X'./.T.T.T.1.=.1.{.{..X(.'.# @ o ",
", @ o @ , 2 7 u 6.M.&X2X-X .{ e 8 g , /.(.:.(.(./.x l h g g g g h g j g j g j j h j j x  .p.7X-X@.) ^ l l ! /.(.-X-X<X`.j r f d ",
"d d , # # 2 7 t H 6.8.8.`.<Xw v e 4 4 (.E N J.(.( z z h g g j g g 7 j h j j j j z z z { u.,X>Xf.] h h h h z ] $.k.1X3X6.{ c g 3 ",
"7 f 4 4 < 4 7 8 y J 5.J ' /./.3 7 6.-X`.B.E P.(.{ x g g g h g h 8 j j j j j z z z z [ b :X8Xv. .k g f d f j x | g.1X<XJ [ x j h ",
"j h g g g 4 4 r t t y e w 8 /.T.>X2X<X'.`.L.'.'.t.' j j h j h j j j j z h f f f f @ r ].7X-Xs.] z j g g g j v ..#.(.>X .{ v c j ",
"c z z j j j g g 8 w w w e z ( >X/.D.j.s.s.x.-X;Xp.t.[ z h j j j z z z f X X # g 0 _ _.-X3X~.} ( c j g g g j x ] O./.0.] ' x x x ",
"( x x x z k h 7 h 6 z e z G O./.` } ( ' [ i.M.7X;Xp.t.[ z z j k e z 1 . & * 0 q S /.`.'.2Xs./  .] y z j 8 z x ] | T.g ] ] ) ' ( ",
"' ' ( x x x z # d a 7 z { #.[.(.| ( j 8 c 4.p.,X8X;X7.u 8 3 # @ X   . : 6 V C D T.J.R R 2XP.} ] a. .J [ Z x ' ( / T.g g ] ) ] ] ",
"} ] } ) ( ' x a f h ( @.h.OX-X`...x g 2 5 t u.M.:X8X7X_.U Z q q q q V C I.T.T.T.T.n T T /.(.h.s.y.Q I 7 2 # a _ &.T._ l g a x } ",
"a ( x x x ) z 3 q ) O.D.'.>X8X-Xa.v h 3 & r i p.M.,X7X1X2X1XT.T.T.T.T.V.;.>.T.T.T.T././.(.(.'.*X%X.X0.| } ` +.2.T.T.I.` _ ^ a a ",
"^ 5 a s l a / S T././.`.'.>X8X!.a.' 6 3 3 3 e i z.2XN.n.t.' v | /.,.Y N T G./.T.T.k x ] @.'.9X1X6X4X+X{.{.3.H.T.T.T.T.T.T.X.S ) ",
"J.X.X.X.X.o.I.T.T.T.O.+.l. X2Xj...y 8 5 5 o # F v.`.v.i.4.t t ] | /.G.G.T.T.C.h g g k ' ..b.=XqXqX<X-X`.;XT.Z.( ( ^ ) _ T.T.T.T.",
"# p & * T.T.T.T.h k x ] @.-.>XO.| ( x o o # 7 } k.(.s.[ H t y ..(.;X/./.Y.x h 3 f d 5 x } j.%X5X9X3X<X(.| ' x z k z l ) _ T.T.V.",
"f f g h h U.T.h g f h z ] | (.O./ j a & 3 w A g.T./.|.@.F t y a.`.>X(.@.] z g p 2 # 2 j Z 6.b.$X$X1X>Xg...x l z k h h k T.9 2 3 ",
"x x x k h T.I.g 2 2 2 f z ) T.~ | ) Z ( F | I.T.K @ 3 /.(.h.{.@X-X'.k.@.] c g 2 < < < f z { a.g.}.`.(.#.] x z x z g g l T.g k z ",
"_ ] / k l U.a g f 2 2 3 h x T.T.*.*.#.*.X @ @ @ # 2 f 8 y  .w.>X2X>XXXf.} c g 2 , < 2 2 7 x { @.OX(.(.#.] v z w g h # ' 9.x ( ) ",
"x k k ` &.T.h h g 3 5 h z l T.T.oX1 @ @ @ @ # # # 2 7 w F 6.m.<X7X<X#Xj...' r g 2 4 4 f @ p h ( OX/.(.s...' 2 X o o p Q Z.) } | ",
"l ) +.2.T.T.( x 8 j z z x h T.T.@ @ @ @ # # # # p 3 7 c { y.m.&X7X<X#Xj...{ x j g g 7 o o # g }.+X,X(.g.} j * # @ z  .I.T.k k k ",
"%.&.T.T.T.T.} ( ( ( ' ' f T.T.@ @ # , , # # 2 & 2 3 8 z '  .w.N.2X;XXXj.a.} ' z 8 z 5 e L Q D./.;X(.R Z.s.} ( F ] O.h.T.T._ _ ` ",
"T.T.T.k T.T.l | | } ) h k T.@ # # , 2 2 2 2 3 3 f f j t ' [ Q j.,X'.k.g.@...] ( ' v F I /.`.T.>X/.;X(.(./.l.*.*.h.T.T.oXT.T.2.3.",
"h s f f f T.T._ ) }  .O./.o , # d # 3 f f f 5 5 h g 6 z e e J ..`.(.(.l.s...| } ] # U T.T.Y.d f g z v z x T.T.T.) / / ( / T.T.T.",
"g a d d f Q T./.E.@X@X`./.d 2 2 f g 7 g h h 8 6 j j j z h w ' /.$.#.`.^..Xl.s.s.j g.T.>X@ f 3 g j z z z T.T.) ^ ( x l l l T.T.k ",
"a # # 2 2 # g (.'.3X1X-Xe 7 5 5 g j j j j z j z z k z j 5 j ( ( { d._.3X>X].x.z.$X_.2Xj z h h h j z h k T.` } ] l k k k k T.^ h ",
"& # , 2 d h z  . X2X9X-XJ e 8 h j z z z x z x x x x x f f l / e y u.N.2X0X9X0X0X,X9X_.t.{ ( x x ' ] h _ k _ } ] ] ( v h d _ l g ",
"d 2 2 3 5 j v @.k.-X2X6.{ v j z x x x x v x ' x ( ( z a ; l h 7 7 i i.;X1X;X;X-X-X8Xu.t. ...} } ` ` l %.( } } ) ] ( v x I._ l h ",
"3 3 7 7 z x ( ..l.-.<X8 F z x x v ( ( ) ' ) ) ] ] ( l g 6 / k 0 6 8 j (.[ { { ..a.(.^.$...O.@.$.k l %.T.;  .} } ] ( ( f T.` x k ",
"h j j z q z x / -.` /.2 x x x ( ] ' ) ] ] _ ] ] ] ] g h h ` D.) ( ) T.f h x ' } | h T.l $.$.l ` &.W.T.`.3 & } | ] ] g e /.` / l ",
"x x g # # q ) X.&._ T.# ( ' ] ] ] } } } } }  .} h h z z +.%.2._ _ T.# d z ( ] | ) k | T.+.%.U.T.T.a G -Xp # @ )  .g . /.T._ | ( ",
"` ` ` ` ` +.%.2.3.3.T.& ' ) ] } } } | | | | g h z v ] -.=.{.|.T.T.# < 3 x '  ./ l } h.>X>XT.p g g h h T.T.# o o . T.z ] } T./ / ",
"I.H.H.K.T.T.T.T.T.T.T.h j } } } | | @.O.a g g z ( } }.oX|.W./.T.T.# f f j ] ) h ) O.T.;XT.g g h j k k ;X>X<Xo X . 6 l ) ) |.T.T.",
"@ @ @ # # p & a h `.>Xv z | | | @.@.a a s g h x  .}.%X=X-X,X! T.T.f f h k l g ) T.T O T.g h h k l x ^ T.,X<XT.^ T.a g ) _ /.T.@ ",
"@ @ # # p & & f g ( >X'.6.x | j j h g h s h 0 +.[.$X>X9X>Xk.| ( T.g h s g h } T.>.- = U.h l x ( ( ) ) T.T.^ x x ( T.l l U.o o o ",
"@ @ , # # d p f g z `.2Xz.G v x x z l h _ ` o.=.(.-X3X7X#Xf. .6 T.g g ( } @.Z.T.T.,.:.T.h ( ^ ) _ } l T.g k l z l T.T.X o o o @ ",
"o @ @ # # 2 & f 3 z { >X>XU @.s.Q O.O.X.o.%.T./.7 y -X<X_.y.{ x T...O.P.T.B.X o o X T.-X;XT.k l l l _ T.p h j 6 h T.X o o o o o ",
"@ , # # # 2 & 3 f g z (./.(.`.#X X[.=.=.T./.. , 1 7 t u '.{ F 7 T.T./.@ @ @ @ @ , @ , @ o T.(._ ` T.T.T.# o h 8 T.o o o o o o @ ",
"@ # # # 2 2 f f g a T.` O.#.'.2X1X`.(./.o o @ , < 4 7 8 4 T.9.T.T.# # < # # # # # < # d p # g T.T.T.  o K.B.. o o o , o @ @ o @ ",
"@ < # # d d d g g g / ) ] | _.<X-X(.7 4 f d 2 2 2 2 2 3 3 F T.T.f f f f g f 2 2 d f d d f f p T.  o o o @ # T.T.@ o @ o o @ @ @ ",
"d d d f f f f f p B.k x v ] } `.[ [ t 8 g f 3 4 3 3 3 2 f & T.T.g g h g h h j z z z g g g h p T.o o o @ # d 3 T.@ @ @ @ @ @ @ @ "
};
